<svg xmlns="http://www.w3.org/2000/svg" data-name="Layer 1" viewBox="0 0 68 68"><path fill="#fcd462" d="M5 25h58v34.75A5.25 5.25 0 0 1 57.75 65h-47.5A5.25 5.25 0 0 1 5 59.75V25z"/><path d="M57.75 66h-47.5A6.26 6.26 0 0 1 4 59.75V25a1 1 0 0 1 1-1h58a1 1 0 0 1 1 1v34.75A6.26 6.26 0 0 1 57.75 66zM6 26v33.75A4.26 4.26 0 0 0 10.25 64h47.5A4.26 4.26 0 0 0 62 59.75V26z"/><path fill="#f6c358" d="M65 37a122.07 122.07 0 0 1-62 0V15h62z"/><path d="M33.67 42a120.93 120.93 0 0 1-30.92-4A1 1 0 0 1 2 37V15a1 1 0 0 1 1-1h62a1 1 0 0 1 1 1v22a1 1 0 0 1-.76 1 128.75 128.75 0 0 1-31.57 4zM4 36.23a121.68 121.68 0 0 0 60 0V16H4zM65 37z"/><rect width="6" height="12" x="31" y="35" fill="#72bede" rx="3" ry="3"/><path d="M34 48a4 4 0 0 1-4-4v-6a4 4 0 0 1 8 0v6a4 4 0 0 1-4 4zm0-12a2 2 0 0 0-2 2v6a2 2 0 0 0 4 0v-6a2 2 0 0 0-2-2zM47 16H21a1 1 0 0 1-1-1V7.31A5.32 5.32 0 0 1 25.31 2h17.38A5.32 5.32 0 0 1 48 7.31V15a1 1 0 0 1-1 1zm-25-2h24V7.31A3.32 3.32 0 0 0 42.69 4H25.31A3.32 3.32 0 0 0 22 7.31z"/></svg>